<svg width="32" height="32" viewBox="0 0 32 32" fill="none" xmlns="http://www.w3.org/2000/svg">
<circle cx="16" cy="16" r="16" fill="#42A8C0"/>
<path d="M5.56818 12.392V10.3636H15.125V12.392H11.5625V22H9.13068V12.392H5.56818ZM16.6989 22V10.3636H21.2898C22.1686 10.3636 22.9186 10.5208 23.5398 10.8352C24.1648 11.1458 24.6402 11.5871 24.9659 12.1591C25.2955 12.7273 25.4602 13.3958 25.4602 14.1648C25.4602 14.9375 25.2936 15.6023 24.9602 16.1591C24.6269 16.7121 24.1439 17.1364 23.5114 17.4318C22.8826 17.7273 22.1212 17.875 21.2273 17.875H18.1534V15.8977H20.8295C21.2992 15.8977 21.6894 15.8333 22 15.7045C22.3106 15.5758 22.5417 15.3826 22.6932 15.125C22.8485 14.8674 22.9261 14.5473 22.9261 14.1648C22.9261 13.7784 22.8485 13.4527 22.6932 13.1875C22.5417 12.9223 22.3087 12.7216 21.9943 12.5852C21.6837 12.4451 21.2917 12.375 20.8182 12.375H19.1591V22H16.6989ZM22.983 16.7045L25.875 22H23.1591L20.3295 16.7045H22.983Z" fill="white"/>
</svg>
